<svg width="279" height="352" viewBox="0 0 279 352" fill="none" xmlns="http://www.w3.org/2000/svg">
<path d="M135.842 0C210.312 0 270.682 15.2223 270.682 34V217.5C270.682 291.782 210.312 352 135.842 352C135.675 352 135.508 351.997 135.341 351.996V0.000976562C135.508 0.000823378 135.675 9.33407e-08 135.842 0Z" fill="url(#paint0_linear_2_118)"/>
<path d="M134.84 0C60.3701 0 0.000167847 15.2223 0.000167847 34V217.5C0.000167847 291.782 60.3701 352 134.84 352C135.007 352 135.174 351.997 135.341 351.996V0.000976562C135.174 0.000823382 135.007 8.86745e-08 134.84 0Z" fill="url(#paint1_linear_2_118)"/>
<path d="M222.077 45.3532C226.02 44.0721 230.258 46.223 231.54 50.1566L252.439 114.26C253.721 118.194 251.564 122.421 247.62 123.702C243.676 124.983 239.439 122.833 238.157 118.9L222.743 71.6206C220.25 76.2039 217.328 81.4797 214.163 87.0078C204.783 103.393 192.7 123.027 183.231 132.823C174.417 141.941 163.257 152.772 154.344 161.285C149.878 165.549 145.958 169.248 143.155 171.882C141.754 173.199 140.63 174.25 139.856 174.973C139.469 175.334 139.17 175.614 138.966 175.803C138.865 175.898 138.787 175.97 138.735 176.019C138.709 176.043 138.689 176.062 138.675 176.075C138.669 176.081 138.664 176.085 138.66 176.088C138.658 176.09 138.656 176.091 138.656 176.092L138.654 176.094C136.063 178.501 132.224 178.73 129.397 176.863C128.05 176.681 126.736 176.135 125.613 175.204L90.6657 146.211L35.3945 192.873C34.3473 193.757 33.3001 194.642 32.2529 195.526C33.1216 194.467 33.9908 193.407 34.8596 192.348L81.7722 135.155C82.0105 134.864 82.2482 134.574 82.4864 134.283C82.7262 133.111 83.2519 131.98 84.0723 130.997C86.7248 127.815 91.4595 127.38 94.6475 130.025L132.438 161.376C132.576 161.246 132.717 161.114 132.861 160.979C135.642 158.366 139.53 154.695 143.96 150.464C152.838 141.985 163.823 131.322 172.422 122.426C180.367 114.207 191.57 96.2671 201.122 79.582C204.032 74.5006 206.735 69.6308 209.08 65.3302L162.451 80.4758C158.507 81.7569 154.271 79.6068 152.988 75.673C151.706 71.7394 153.863 67.5119 157.807 66.2309L222.077 45.3532Z" fill="white"/>
<path d="M53.1339 212H94.2374V295C94.2374 295 53.1339 295 53.1339 271C53.1339 247 53.1339 212 53.1339 212Z" fill="white"/>
<path d="M177.447 160H218.551C218.551 160 218.551 225 218.551 260C218.551 295 177.447 295 177.447 295V160Z" fill="white"/>
<rect x="115.29" y="206" width="41.1036" height="89" fill="white"/>
<defs>
<linearGradient id="paint0_linear_2_118" x1="135.341" y1="3.5" x2="270.089" y2="352.229" gradientUnits="userSpaceOnUse">
<stop stop-color="#89FFA5"/>
<stop offset="0.668269" stop-color="#509961"/>
</linearGradient>
<linearGradient id="paint1_linear_2_118" x1="135.341" y1="0" x2="0.59416" y2="352.227" gradientUnits="userSpaceOnUse">
<stop stop-color="#5D9BD1"/>
<stop offset="0.673029" stop-color="#12285E"/>
</linearGradient>
</defs>
</svg>
